<?xml version="1.0" encoding="utf-8"?>
<!-- Generator: Adobe Illustrator 25.4.1, SVG Export Plug-In . SVG Version: 6.00 Build 0)  -->
<svg version="1.1" id="Layer_1" xmlns="http://www.w3.org/2000/svg" xmlns:xlink="http://www.w3.org/1999/xlink" x="0px" y="0px"
	 viewBox="0 0 400 98.45" style="enable-background:new 0 0 400 98.45;" xml:space="preserve">
<style type="text/css">
	.st0{fill:#FFFFFF;}
	.st1{fill-rule:evenodd;clip-rule:evenodd;fill:#FFFFFF;}
</style>
<g>
	<g>
		<path class="st0" d="M95.17,4.1V1.03c1.25,0.03,3.14,0.08,5.68,0.15l9.17,0.24c1.82,0,4.63-0.07,8.46-0.21
			c4.96-0.2,7.84-0.3,8.64-0.3c6.07,0,10.5,0.53,13.3,1.62c2.78,1.09,4.93,2.86,6.46,5.29c1.52,2.43,2.29,5.09,2.29,7.95
			c0,2.67-0.71,5.34-2.14,7.98c-1.42,2.64-3.49,4.85-6.21,6.6c-2.7,1.75-6.23,3.1-10.56,4.06c0.79,1.12,2.66,3.6,5.61,7.45
			l12.01,15.84c3.42,4.45,5.4,6.93,5.96,7.45c0.3,0.22,0.58,0.38,0.86,0.48c0.48,0.15,1.51,0.24,3.12,0.24v3.04
			c-2.39-0.25-4.47-0.37-6.25-0.37c-1.85,0-4.13,0.12-6.83,0.37c-2.07-2.38-5.55-7.05-10.41-13.99c-2.71-3.86-5.1-7.08-7.17-9.65
			c-3.36-4.27-6.55-8.14-9.57-11.62l0.47-1.42c1.63,0.08,2.88,0.13,3.72,0.13c5.73,0,10.07-1.37,13.01-4.11
			c2.96-2.75,4.44-6.36,4.44-10.84c0-3.92-1.29-7.04-3.84-9.34c-2.55-2.32-6.4-3.47-11.57-3.47c-3.24,0-6.43,0.51-9.55,1.52
			c-0.13,1.73-0.23,3.34-0.29,4.83c-0.04,0.44-0.15,5.06-0.34,13.89v21.2c0,4.31,0.08,8.54,0.25,12.64c0.07,3.03,0.28,4.82,0.64,5.4
			c0.36,0.56,0.97,0.99,1.79,1.26c0.83,0.28,3.12,0.44,6.87,0.51v3.04c-4.55-0.25-8.72-0.37-12.52-0.37c-3.07,0-8.24,0.12-15.5,0.37
			v-3.04c3.75-0.07,6.05-0.23,6.87-0.51c0.83-0.26,1.41-0.64,1.73-1.11c0.37-0.64,0.6-2.18,0.7-4.63c0.05-0.67,0.13-5.2,0.26-13.58
			V23.91c0-4.32-0.08-8.56-0.26-12.71c-0.09-3.02-0.32-4.81-0.68-5.37c-0.37-0.56-0.94-0.98-1.75-1.24
			C101.23,4.32,98.94,4.16,95.17,4.1"/>
		<path class="st0" d="M190.56,56.54c-2.06,2.47-4.12,4.32-6.2,5.56c-2.07,1.22-4.17,1.83-6.29,1.83c-2.32,0-4.12-0.65-5.42-1.97
			c-1.3-1.33-1.95-3.16-1.95-5.53c0-1.93,0.41-3.7,1.22-5.3c0.54-1.07,1.17-1.89,1.9-2.43c1.2-0.93,3.27-1.82,6.18-2.68
			c2.91-0.84,6.43-1.64,10.55-2.33V56.54z M170.67,31.69l0.86-1.73c0.31-0.35,1.18-0.78,2.58-1.28c1.41-0.52,3.06-0.76,4.92-0.76
			c2.6,0,4.79,0.53,6.59,1.62c1.81,1.08,3.09,2.47,3.85,4.17c0.76,1.69,1.12,4.03,1.09,7.08c-4.07,0.47-8.16,1.2-12.31,2.17
			c-4.14,1-7.12,1.92-8.97,2.77c-1.07,0.52-2.13,1.29-3.18,2.36c-1.05,1.07-1.95,2.52-2.69,4.32c-0.75,1.82-1.13,3.82-1.13,6.02
			c0,3.4,1.07,6.12,3.21,8.17c2.15,2.05,5.13,3.08,8.98,3.08c1.83,0,3.35-0.32,4.56-0.94c1.21-0.62,5.04-3.37,11.52-8.27l-0.25,8.43
			c3.18-0.25,5.73-0.37,7.64-0.37c1.97,0,4.26,0.12,6.87,0.37v-2.66l-3.08-0.3c-1.01-0.06-1.68-0.19-2-0.39
			c-0.41-0.21-0.71-0.56-0.9-1.04c-0.26-0.66-0.39-1.77-0.39-3.3V46.96l0.26-8.75c0-3.09-0.42-5.54-1.24-7.33
			c-1.22-2.55-3.05-4.51-5.53-5.88c-2.48-1.37-5.51-2.06-9.16-2.06c-2.45,0-4.65,0.34-6.63,1.01c-2.57,0.93-5.88,2.72-9.91,5.36
			c0.03,0.79,0.05,1.86,0.05,3.2c0,1.28-0.02,2.28-0.05,3.01l2.53,0.67C169.18,35.11,169.81,33.6,170.67,31.69"/>
		<path class="st0" d="M206.68,94.39l2.43-7.4h1.15c0.61,0.52,1.13,0.93,1.55,1.24c0.43,0.29,0.89,0.52,1.39,0.68
			c0.48,0.17,1.21,0.24,2.17,0.24c0.99,0,1.95-0.21,2.89-0.63c0.93-0.43,1.81-1.1,2.62-2c0.81-0.92,1.78-2.5,2.89-4.74
			c1.69-3.42,3.19-6.91,4.54-10.47c-1.02-2.86-2.25-6.09-3.66-9.65l-7.59-18.86c-2.24-5.61-4.09-9.9-5.52-12.86
			c-0.57-1.17-1.19-1.93-1.84-2.34c-0.65-0.39-2.1-0.72-4.37-0.97v-2.67c3.95,0.26,7.84,0.38,11.68,0.38
			c3.76,0,7.36-0.12,10.84-0.38v2.67c-3.3,0.21-5.17,0.43-5.64,0.61c-0.82,0.32-1.25,0.88-1.25,1.7c0,0.5,0.27,1.54,0.82,3.12
			c1.24,3.93,2.42,7.27,3.53,10.04l3.02,7.45c1.81,4.46,3.33,8.08,4.57,10.86l2.54-5.64c0.98-2.23,2.73-6.47,5.21-12.72
			c2.49-6.24,3.95-10.1,4.36-11.61c0.12-0.51,0.19-0.98,0.19-1.37c0-0.62-0.25-1.1-0.74-1.44c-0.5-0.34-2.41-0.67-5.75-1v-2.67
			c3.71,0.26,7,0.38,9.84,0.38c2.88,0,5.74-0.12,8.55-0.38l-0.48,2.67c-1.62,0.07-2.88,0.43-3.77,1.07
			c-0.9,0.64-2.24,2.82-4.04,6.52c-1.8,3.69-5.12,10.9-9.98,21.64l-11.01,25.87c-1.85,4.11-3.44,7.05-4.77,8.8
			c-1.33,1.77-2.89,3.11-4.7,4.02c-1.8,0.9-3.8,1.36-5.96,1.36c-1.06,0-1.99-0.12-2.84-0.35C208.67,95.34,207.72,94.94,206.68,94.39
			"/>
		<path class="st0" d="M261.56,68.91v-2.67l4.57-0.04c0.68-0.03,1.19-0.15,1.55-0.37c0.37-0.19,0.66-0.46,0.85-0.79
			c0.34-0.65,0.57-1.77,0.68-3.4c0-0.41,0.07-5,0.26-13.76v-5.7c0-2.56-0.09-5.3-0.26-8.26c-0.1-1.88-0.25-2.99-0.45-3.35
			c-0.2-0.34-0.56-0.61-1.06-0.79c-0.52-0.17-2.55-0.24-6.14-0.21v-2.68c6.43-0.9,11.1-2.04,14.06-3.47
			c0.63-0.31,1.05-0.48,1.27-0.48c0.23,0,0.39,0.09,0.52,0.25c0.13,0.15,0.19,0.39,0.19,0.71c0,0.22,0,0.48-0.03,0.77
			c-0.07,1.15-0.15,3.59-0.22,7.3l8.88-7.6c2.61-0.96,5.08-1.43,7.4-1.43c2.58,0,5.02,0.53,7.32,1.58c2.31,1.04,4.05,2.37,5.22,3.96
			c1.17,1.6,1.94,3.6,2.32,6.02c0.22,1.43,0.34,5.44,0.34,12v8.45c0,4.15,0.07,6.97,0.24,8.46c0.16,0.95,0.41,1.61,0.75,1.98
			c0.34,0.38,0.86,0.61,1.58,0.69l5.19,0.14v2.67c-3.12-0.25-5.69-0.37-7.74-0.37c-1.77,0-4.72,0.12-8.82,0.37
			c0.33-7.85,0.51-12.82,0.51-14.89V46c0-4.99-0.19-8.26-0.58-9.82c-0.54-2.14-1.76-3.86-3.67-5.17c-1.9-1.29-4.21-1.96-6.91-1.96
			c-2.39,0-4.57,0.56-6.54,1.7c-1.97,1.13-3.37,2.43-4.22,3.91c-0.85,1.48-1.26,3.98-1.26,7.48v5.78
			c0.17,8.29,0.25,12.76,0.25,13.43c0.07,1.6,0.26,2.75,0.58,3.49c0.13,0.29,0.32,0.53,0.57,0.73c0.25,0.21,0.65,0.38,1.19,0.51
			c0.2,0.04,1.95,0.09,5.28,0.14v2.67c-3.89-0.25-7.41-0.37-10.57-0.37C271.98,68.53,267.62,68.65,261.56,68.91"/>
		<path class="st0" d="M330.45,29.63c2.21-2.6,5.11-3.89,8.71-3.89c3.41,0,6.15,1.18,8.18,3.55c2.05,2.36,3.06,6.07,3.06,11.11
			c0,0.42-0.01,1-0.05,1.76c-1.33,0.17-4.14,0.24-8.37,0.24c-1.78,0-5.05-0.08-9.81-0.24c-2.48-0.08-4.17-0.16-5.07-0.24
			C327.14,36.32,328.26,32.22,330.45,29.63 M357.04,60.68c-2.85,1.69-5.23,2.84-7.17,3.46c-1.93,0.63-3.87,0.95-5.8,0.95
			c-2.88,0-5.65-0.67-8.31-2.02c-2.66-1.33-4.76-3.42-6.27-6.25c-1.52-2.82-2.32-6.52-2.38-11.08h15.34c3.45,0,6.89-0.13,10.33-0.38
			c1.82-0.15,3.87-0.43,6.17-0.87c0.16-1.29,0.24-2.37,0.24-3.27c0-3.55-0.66-6.74-2-9.55c-1.34-2.81-3.45-5.03-6.33-6.66
			c-2.88-1.63-6.09-2.44-9.66-2.44c-2.93,0-5.65,0.53-8.16,1.58c-1.9,0.76-3.84,1.81-5.77,3.13c-1.94,1.34-3.38,2.5-4.3,3.52
			c-1.26,1.41-2.41,3.59-3.4,6.54c-1.02,2.95-1.5,6.27-1.5,9.93c0,4.7,0.94,8.79,2.83,12.28c1.9,3.5,4.53,6.12,7.94,7.88
			c3.4,1.73,7.21,2.63,11.4,2.63c2.12,0,4.16-0.24,6.08-0.7c1.93-0.46,3.63-1.02,5.13-1.7c1.01-0.44,2.63-1.36,4.82-2.72l1.51-3.45
			L357.04,60.68z"/>
		<path class="st0" d="M362.77,68.91v-2.67c3.61-0.05,5.56-0.13,5.84-0.19c0.54-0.1,0.94-0.25,1.22-0.47
			c0.27-0.2,0.48-0.5,0.64-0.88c0.33-0.73,0.52-1.89,0.58-3.45c0.17-8.54,0.26-13,0.26-13.38v-5.7c0-2.56-0.09-5.3-0.26-8.26
			c-0.06-1.88-0.2-2.99-0.4-3.35c-0.2-0.34-0.56-0.61-1.08-0.79c-0.52-0.17-2.58-0.24-6.16-0.21v-2.68
			c6.42-0.9,11.09-2.04,14.05-3.47c0.65-0.31,1.07-0.48,1.3-0.48c0.22,0,0.39,0.09,0.53,0.25c0.11,0.15,0.18,0.39,0.18,0.71
			c0,0.22-0.01,0.48-0.04,0.77c-0.13,1.95-0.19,4.98-0.22,9.07c1.42-1.65,2.75-3.29,3.95-4.92c1.22-1.62,2.09-2.68,2.63-3.15
			c0.95-0.82,2.04-1.48,3.28-1.99c1.25-0.48,2.54-0.74,3.88-0.74c1.32,0,2.64,0.29,3.94,0.87l0.28,0.67
			c-0.45,4.24-0.71,7.95-0.76,11.17h-2.15c-0.73-1.54-1.58-2.65-2.55-3.36c-0.97-0.7-2.18-1.06-3.65-1.06
			c-2.44,0-4.54,1.01-6.26,3.05c-1.71,2.01-2.58,5.06-2.58,9.11v4.93c0,2.1,0.08,5.94,0.26,11.53c0.03,1.98,0.11,3.24,0.23,3.78
			c0.13,0.55,0.3,0.93,0.51,1.17c0.2,0.24,0.54,0.46,1.02,0.6c0.95,0.29,3.55,0.58,7.79,0.86v2.67c-5.62-0.25-10.42-0.37-14.38-0.37
			C370.55,68.53,366.6,68.65,362.77,68.91"/>
		<path class="st1" d="M35.95,68.89h-4.63l2.45-3.75L35.95,68.89z M43.94,68.89h-5.63l-3.28-5.68l2.99-4.58L43.94,68.89z
			 M51.9,68.89H46.3l-7.03-12.17l2.98-4.57L51.9,68.89z M59.89,68.89h-5.61L43.51,50.23l2.98-4.56L59.89,68.89z M67.87,68.89h-5.61
			L47.74,43.75l2.98-4.57L67.87,68.89z M75.86,68.89h-5.61L51.98,37.26l2.97-4.56L75.86,68.89z M84.37,68.89h-6.14L56.21,30.77
			l3.26-4.99L84.37,68.89z"/>
		<polygon class="st0" points="84.58,68.92 82.93,68.92 44.48,2.34 45.35,0.98 		"/>
		<polygon class="st0" points="76.6,68.92 74.95,68.92 40.28,8.89 41.16,7.54 		"/>
		<polygon class="st0" points="68.62,68.92 66.97,68.92 36.08,15.44 36.95,14.08 		"/>
		<polygon class="st0" points="60.64,68.91 58.98,68.91 31.89,21.99 32.76,20.62 		"/>
		<polygon class="st0" points="52.66,68.91 51,68.91 27.69,28.53 28.56,27.19 		"/>
		<polygon class="st0" points="44.67,68.91 43.01,68.91 23.49,35.1 24.37,33.73 		"/>
		<polygon class="st0" points="36.69,68.91 35.03,68.91 19.3,41.64 20.16,40.29 		"/>
		<polygon class="st0" points="28.7,68.91 27.05,68.91 15.09,48.2 15.96,46.83 		"/>
		<polygon class="st0" points="20.72,68.91 19.07,68.91 10.89,54.75 11.77,53.39 		"/>
		<polygon class="st0" points="12.74,68.89 11.09,68.89 6.7,61.3 7.56,59.94 		"/>
		<polygon class="st0" points="4.76,68.89 3.1,68.89 2.5,67.85 3.37,66.48 		"/>
	</g>
</g>
</svg>
